HIERARCHY
ROOT Hips
{
	OFFSET 0.00 0.00 0.00
	CHANNELS 6 Xposition Yposition Zposition Xrotation Yrotation Zrotation
	JOINT Spine
	{
		OFFSET 0.00000 1.15266 1.72900
		CHANNELS 3 Xrotation Yrotation Zrotation
		JOINT Spine1
		{
			OFFSET 0.00000 0.40032 2.27031
			CHANNELS 3 Xrotation Yrotation Zrotation
			JOINT Spine2
			{
				OFFSET 0.00000 0.20092 2.29656
				CHANNELS 3 Xrotation Yrotation Zrotation
				JOINT Spine3
				{
					OFFSET 0.00000 0.00000 2.30533
					CHANNELS 3 Xrotation Yrotation Zrotation
					JOINT Neck
					{
						OFFSET 0.00000 -0.86449 6.05149
						CHANNELS 3 Xrotation Yrotation Zrotation
						JOINT Head
						{
							OFFSET 0.00000 -0.55043 3.12167
							CHANNELS 3 Xrotation Yrotation Zrotation
							End Site
							{
								OFFSET 0.00000 0.00000 3.73175
							}
						}
					}
					JOINT RightShoulder
					{
						OFFSET -0.78828 -1.31380 4.25672
						CHANNELS 3 Xrotation Yrotation Zrotation
						JOINT RightArm
						{
							OFFSET -3.91513 0.00000 0.00000
							CHANNELS 3 Xrotation Yrotation Zrotation
							JOINT RightForeArm
							{
								OFFSET -6.91491 0.00000 0.00000
								CHANNELS 3 Xrotation Yrotation Zrotation
								JOINT RightHand
								{
									OFFSET -6.09622 0.00000 0.00000
									CHANNELS 3 Xrotation Yrotation Zrotation
									JOINT RightHandEnd
									{
										OFFSET -1.74995 0.00000 0.00000
										CHANNELS 3 Xrotation Yrotation Zrotation
										End Site
										{
											OFFSET -1.74995 0.00000 0.00000
										}
									}
									JOINT RightHandThumb1
									{
										OFFSET -0.69998 -1.16663 -0.46665
										CHANNELS 3 Yrotation Xrotation Zrotation
										End Site
										{
											OFFSET -1.69032 -0.45292 0.00000
										}
									}
								}
							}
						}
					}
					JOINT LeftShoulder
					{
						OFFSET 0.78828 -1.31380 4.25672
						CHANNELS 3 Xrotation Yrotation Zrotation
						JOINT LeftArm
						{
							OFFSET 3.91513 0.00000 0.00000
							CHANNELS 3 Xrotation Yrotation Zrotation
							JOINT LeftForeArm
							{
								OFFSET 6.91491 0.00000 0.00000
								CHANNELS 3 Xrotation Yrotation Zrotation
								JOINT LeftHand
								{
									OFFSET 6.09622 0.00000 0.00000
									CHANNELS 3 Xrotation Yrotation Zrotation
									JOINT LeftHandEnd
									{
										OFFSET 1.74995 0.00000 0.00000
										CHANNELS 3 Xrotation Yrotation Zrotation
										End Site
										{
											OFFSET 1.74995 0.00000 0.00000
										}
									}
									JOINT LeftHandThumb1
									{
										OFFSET 0.69998 -1.16663 -0.46665
										CHANNELS 3 Yrotation Xrotation Zrotation
										End Site
										{
											OFFSET 1.69032 -0.45292 0.00000
										}
									}
								}
							}
						}
					}
				}
			}
		}
	}
	JOINT RightUpLeg
	{
		OFFSET -2.33857 0.00000 -0.68318
		CHANNELS 3 Xrotation Yrotation Zrotation
		JOINT RightLeg
		{
			OFFSET 0.00000 0.00000 -10.74496
			CHANNELS 3 Xrotation Yrotation Zrotation
			JOINT RightFoot
			{
				OFFSET 0.00000 0.00000 -10.93085
				CHANNELS 3 Xrotation Yrotation Zrotation
				JOINT RightToeBase
				{
					OFFSET 0.00000 -4.08727 -1.48765
					CHANNELS 3 Xrotation Yrotation Zrotation
					End Site
					{
						OFFSET 0.00000 -1.89187 -0.00000
					}
				}
			}
		}
	}
	JOINT LeftUpLeg
	{
		OFFSET 2.33857 0.00000 -0.68318
		CHANNELS 3 Xrotation Yrotation Zrotation
		JOINT LeftLeg
		{
			OFFSET 0.00000 0.00000 -10.74496
			CHANNELS 3 Xrotation Yrotation Zrotation
			JOINT LeftFoot
			{
				OFFSET 0.00000 0.00000 -10.93085
				CHANNELS 3 Xrotation Yrotation Zrotation
				JOINT LeftToeBase
				{
					OFFSET 0.00000 -4.08727 -1.48765
					CHANNELS 3 Xrotation Yrotation Zrotation
					End Site
					{
						OFFSET 0.00000 -1.89187 -0.00000
					}
				}
			}
		}
	}
}
MOTION
Frames: 16
Frame Time:	0.0333333
 -5.2915 6.8463 24.6103 -6.9603 3.5321 178.6353 1.1431 2.9730 0.1149 -0.0973 2.6232 0.8429 4.3072 3.8885 8.5921 -0.2250 0.4228 1.9019 -10.1098 6.8997 -6.4433 -3.0812 -4.1149 -9.2716 -4.3012 9.3696 3.0655 -74.7515 -36.8954 -22.8987 -0.0000 0.0001 87.1042 -76.9699 -24.0579 15.6712 0.0000 -0.0000 0.0000 -0.0000 0.0000 -0.0000 -6.3471 -19.9204 -7.7839 -93.2871 21.0906 15.6301 -0.0000 -0.0001 -76.1771 -44.6884 2.2841 -7.7587 0.0000 0.0000 -0.0000 0.0000 0.0000 0.0000 -7.1499 13.0093 -16.8668 26.2528 0.0000 0.0000 -15.2863 -9.0152 -21.6002 4.9279 0.0000 0.0000 -13.5626 -15.2422 6.1331 15.9060 0.0000 0.0000 5.6096 13.2493 -32.2267 -6.3295 0.0000 -0.0000
 -5.0689 7.1083 24.6657 -7.8016 1.1076 -176.7864 -1.0687 2.2104 0.1812 -0.9882 2.6297 0.7259 5.3706 3.8336 6.0525 0.3038 0.4162 1.1816 -7.1498 3.7242 -4.1220 9.3772 -6.5906 -5.5878 -3.3496 2.1877 2.7224 -61.0531 -39.6770 -19.6958 -0.0000 0.0001 80.0726 -95.1587 -30.1523 3.9454 -0.0000 0.0000 0.0000 0.0000 -0.0000 -0.0000 -5.2468 -10.3734 -4.9939 -78.9730 31.6471 10.8622 -0.0000 -0.0001 -79.5894 -52.0780 21.7869 -13.5971 -0.0000 0.0000 0.0000 -0.0000 0.0000 0.0000 -3.7222 10.6287 -11.2310 22.6615 0.0000 0.0000 -13.5943 -9.8492 -17.4777 4.6802 0.0000 0.0000 -14.3275 -15.4669 5.4610 16.2645 0.0000 0.0000 2.2538 14.1338 -22.1749 -5.5301 0.0000 -0.0000
 -4.9669 7.3983 24.4475 -6.4768 -0.1984 -172.5942 -1.7479 2.5002 0.1965 -1.5300 2.1037 0.5877 6.8217 3.9170 4.0575 0.7173 0.1702 0.5879 -4.4246 -0.3697 -2.6059 16.0732 -7.8651 -3.3210 -1.4566 -5.0546 2.6868 -36.6542 -37.6812 -6.9905 -0.0000 0.0001 74.3665 -70.0800 -18.4834 2.7860 0.0000 -0.0000 0.0000 0.0000 -0.0000 0.0000 -2.7724 -0.2513 -1.1510 -53.4759 39.1716 -4.1996 -0.0000 -0.0001 -77.2226 -59.8473 24.6936 -8.0512 -0.0000 -0.0000 -0.0000 -0.0000 0.0000 0.0000 0.2295 10.8985 -4.8592 22.0833 0.0000 0.0000 -13.5452 -12.3909 -11.1835 2.5937 0.0000 0.0000 -17.0861 -16.3579 12.7819 25.5790 0.0000 0.0000 -3.3524 13.1972 -16.8896 -3.4132 0.0000 -0.0000
 -4.9275 7.6810 23.8830 -3.1386 -2.0413 -168.6419 -0.1538 1.7385 0.2104 -1.0568 1.5494 0.4446 7.3855 3.4422 2.9055 0.6507 -0.4474 0.3897 -3.6256 -4.2164 -3.1325 14.5272 -7.1917 -4.0251 1.6676 -10.4225 2.3979 -13.7536 -30.4271 5.1526 -0.0000 0.0001 71.5995 -20.4369 -9.5664 -4.0138 0.0000 -0.0000 0.0000 -0.0000 0.0000 0.0000 0.2170 7.0122 0.1572 -23.8395 36.7495 -22.6935 -0.0000 -0.0001 -72.4195 -48.3208 6.6561 0.6870 0.0000 -0.0000 0.0000 0.0000 0.0000 0.0000 3.2124 10.4423 0.4630 26.5229 0.0000 0.0000 -15.5645 -15.2606 -3.8401 -1.3376 0.0000 -0.0000 -21.1307 -20.0413 14.4006 39.3571 0.0000 0.0000 -9.9912 11.4754 -13.6222 -0.7043 0.0000 -0.0000
 -5.0202 7.9247 23.2299 0.2351 -2.6059 -166.9212 1.8418 1.1204 0.1953 -0.4146 1.1934 0.3687 8.5381 2.6122 2.8109 0.6297 -1.2220 0.6899 -6.7178 -5.6049 -5.4732 8.4480 -5.0525 -6.1598 4.1259 -13.6141 1.9747 -1.9705 -22.5541 11.1018 -0.0000 0.0001 72.8260 25.4277 -29.0463 -7.8486 0.0000 -0.0000 -0.0000 0.0000 -0.0000 -0.0000 2.9924 11.8225 -0.8818 -1.7873 25.9839 -33.3769 -0.0000 -0.0001 -67.3846 -7.4211 8.8934 15.0196 0.0000 0.0000 0.0000 -0.0000 0.0000 0.0000 3.5369 11.3774 2.2576 34.9313 0.0000 0.0000 -17.5620 -17.6104 4.9987 -5.7097 0.0000 -0.0000 -23.1261 -22.2404 11.9219 49.0597 0.0000 0.0000 -15.2555 10.3681 -12.6804 0.7467 0.0000 0.0000
 -5.2504 8.1558 22.9214 1.6662 -1.8756 -168.9435 2.1174 1.1331 0.1024 -0.5120 0.8659 0.3567 10.8990 2.0061 3.1987 1.2199 -1.7346 1.1037 -11.2796 -5.0433 -7.7452 1.5683 -2.7842 -8.1277 4.4401 -15.0331 1.9118 0.1318 -20.1989 12.1168 -0.0000 0.0001 77.4911 33.5021 -34.1320 -7.2382 0.0000 -0.0000 0.0000 -0.0000 0.0000 0.0000 5.8132 15.7817 -2.0809 9.3096 15.2694 -33.9784 -0.0000 -0.0001 -66.2967 30.0053 29.9747 6.8885 -0.0000 0.0000 -0.0000 0.0000 0.0000 0.0000 2.0570 14.2979 3.1935 40.4981 0.0000 0.0000 -16.4553 -19.0336 11.8828 -9.7715 0.0000 -0.0000 -21.4880 -22.0283 11.7803 52.1863 0.0000 0.0000 -18.3494 10.8675 -11.7935 1.5552 0.0000 0.0000
 -5.5364 8.4477 23.1999 1.4347 -1.8424 -173.8056 0.8281 0.1741 0.0616 -1.1242 0.3747 0.2686 12.8615 1.8497 3.4164 2.2057 -1.7961 1.0766 -13.8382 -4.8365 -8.8006 -5.1545 -1.2613 -9.8500 3.0296 -14.7450 1.9540 -3.6827 -22.1293 10.1482 -0.0000 0.0001 83.3075 17.5686 -21.4405 -3.7863 -0.0000 0.0000 0.0000 -0.0000 0.0000 0.0000 6.4162 17.8297 -2.4423 12.1405 15.0198 -26.6491 -0.0000 -0.0001 -70.1039 29.1307 25.4639 -0.3563 0.0000 -0.0000 0.0000 -0.0000 0.0000 0.0000 1.0481 16.0162 5.8444 38.2424 0.0000 0.0000 -10.6977 -19.1738 15.8652 -11.7954 0.0000 -0.0000 -17.4756 -21.1352 14.0284 49.9804 0.0000 0.0000 -17.9736 12.2337 -7.8283 1.3716 0.0000 0.0000
 -5.7648 8.7557 23.8783 -0.0245 -2.5007 179.9326 -0.9116 -1.2637 0.1551 -1.7358 -0.2723 0.1557 13.1233 1.5835 3.8418 2.7395 -1.6044 1.0573 -12.9863 -5.6823 -9.1983 -8.9349 -0.5023 -11.5367 1.9062 -12.6790 1.7907 -9.4077 -21.6990 9.5530 -0.0000 0.0001 89.6698 -0.8434 -19.2692 3.1906 -0.0000 0.0000 -0.0000 -0.0000 -0.0000 0.0000 4.9136 17.0716 -1.1373 6.1948 20.3594 -17.1917 -0.0000 -0.0001 -77.2676 11.2232 19.4974 -1.3328 0.0000 0.0000 0.0000 -0.0000 -0.0000 0.0000 0.0848 16.2812 8.4842 32.0053 0.0000 0.0000 -2.0497 -17.6127 18.8014 -9.2367 0.0000 -0.0000 -13.5760 -20.2814 16.4780 44.6861 0.0000 0.0000 -13.6587 12.0383 -3.4713 -0.7390 0.0000 -0.0000
 -5.8535 9.0231 24.6296 -1.2531 -2.7189 172.7761 -2.1336 -1.8805 0.3221 -2.0299 -1.0076 0.1209 12.3456 1.3171 5.4729 2.8259 -1.5914 1.6396 -9.4670 -7.0849 -9.4355 -6.6114 -0.6272 -13.1766 0.3785 -9.2507 1.6934 -16.3506 -17.5079 10.7522 -0.0000 0.0001 94.5521 -1.4420 -24.0477 5.5913 -0.0000 -0.0000 -0.0000 0.0000 0.0000 -0.0000 2.5095 13.8955 0.0123 -4.9027 20.6306 -9.8680 -0.0001 -0.0001 -84.3930 3.4954 20.3065 -0.4561 0.0000 -0.0000 -0.0000 -0.0000 0.0000 0.0000 -3.3913 16.1859 7.8055 31.1363 0.0000 0.0000 4.1319 -14.1030 19.9929 -3.5778 0.0000 -0.0000 -10.1883 -19.3500 15.8683 38.9227 0.0000 0.0000 -5.4681 10.6832 -2.7683 -4.4723 0.0000 -0.0000
 -5.8047 9.2803 25.1937 -0.9010 -1.9592 164.8254 -2.4631 -1.3744 0.5247 -1.8944 -1.4708 0.2319 10.7722 1.6093 8.3922 3.0303 -1.7508 2.6714 -2.9761 -9.5456 -9.3083 -0.3051 -1.3851 -15.0305 -3.5376 -4.6894 1.6748 -21.2645 -13.1180 13.8097 -0.0000 0.0001 94.3640 6.0426 -24.7102 6.4683 0.0000 0.0000 0.0000 -0.0000 -0.0000 -0.0000 0.1875 10.9600 -0.7064 -16.1964 12.0721 -8.8428 -0.0001 -0.0001 -83.9692 10.6886 15.1684 -4.5054 -0.0000 0.0000 -0.0000 -0.0000 -0.0000 0.0000 -8.9923 16.4199 4.2978 36.4423 0.0000 0.0000 4.5505 -9.6410 15.2559 1.2128 0.0000 0.0000 -7.5115 -17.7878 9.0118 36.7974 0.0000 0.0000 4.6306 10.0982 -5.9823 -7.0423 0.0000 -0.0000
 -5.6539 9.5354 25.3531 -0.0192 -1.0557 156.7087 -2.0898 -0.7404 0.6395 -1.4229 -1.3735 0.4477 7.2914 2.0843 11.8955 2.9881 -1.6331 3.7462 7.3468 -13.3169 -8.4088 4.6748 -2.3160 -17.4856 -7.8380 1.5559 0.8071 -21.4404 -11.5058 18.7396 -0.0000 0.0001 88.0704 5.7904 -16.0339 3.2088 -0.0000 -0.0000 0.0000 -0.0000 -0.0000 0.0000 -2.7203 5.4121 -2.6923 -23.5040 4.8542 -12.8864 -0.0000 -0.0001 -74.0681 7.6456 -0.1749 -3.9576 0.0000 0.0000 -0.0000 -0.0000 0.0000 0.0000 -13.4919 15.8587 1.6296 39.0241 0.0000 0.0000 1.5833 -5.5810 5.4091 3.4754 0.0000 0.0000 -6.6801 -17.3129 1.8517 40.0761 0.0000 0.0000 9.9514 8.4100 -12.6707 -3.9822 0.0000 -0.0000
 -5.4739 9.7185 25.0609 -0.0506 -0.3068 149.7341 -1.4156 -0.2818 0.5989 -1.0422 -0.7832 0.6594 3.3451 2.1476 14.2897 2.3544 -1.5276 4.1694 16.8813 -15.1773 -7.0301 5.8441 -3.7586 -19.6139 -7.7382 7.1308 -1.1363 -22.5765 -7.7766 26.6203 -0.0000 0.0001 76.9636 8.5611 -2.6285 -0.0048 0.0000 -0.0000 0.0000 -0.0000 -0.0000 0.0000 -6.1766 -2.6577 -4.9236 -31.4986 3.0360 -16.3858 -0.0000 -0.0001 -60.8306 -1.7682 -12.2143 -0.6889 0.0000 0.0000 -0.0000 -0.0000 0.0000 0.0000 -15.6745 14.3584 1.5100 36.1480 0.0000 0.0000 -1.1674 -4.3610 -1.4722 3.6485 0.0000 0.0000 -7.2792 -20.0644 0.7380 43.6263 0.0000 0.0000 6.7637 7.8803 -16.0101 -1.8584 0.0000 -0.0000
 -5.3686 9.8133 24.4329 0.0206 0.7760 145.4695 -0.1051 1.0599 0.3997 -0.7128 -0.0099 0.7311 1.1459 2.5332 13.2808 1.7061 -1.6197 3.3916 19.1404 -13.9345 -6.0758 4.0614 -4.5026 -19.9405 -4.3014 9.7030 -1.8838 -29.3054 0.7696 33.1966 -0.0000 0.0001 65.8661 19.8350 5.6613 -5.1513 -0.0000 -0.0000 0.0000 -0.0000 -0.0000 0.0000 -10.2359 -10.3430 -7.3861 -45.0229 2.5059 -17.8600 -0.0000 -0.0000 -47.9253 -5.5044 -24.1892 -0.6977 -0.0000 0.0000 0.0000 0.0000 -0.0000 -0.0000 -17.5134 14.4648 4.6199 35.5814 0.0000 0.0000 -4.9552 -9.3691 -3.2696 3.4335 0.0000 0.0000 -7.6776 -23.8517 1.8460 40.8250 0.0000 0.0000 0.2417 9.0326 -11.5566 -3.3966 0.0000 -0.0000
 -5.4426 9.9188 23.5943 0.7922 1.5810 143.9324 2.5650 2.4543 -0.1893 -0.0025 0.9874 0.6347 0.2343 3.0886 8.9462 1.0668 -1.4568 1.8779 14.9299 -12.0992 -5.1397 0.2451 -3.3719 -17.9495 -2.2815 11.7132 0.5737 -40.2589 5.6279 33.2019 -0.0000 0.0001 60.1150 28.8540 5.5519 -7.0839 -0.0000 0.0000 0.0000 0.0000 0.0000 0.0000 -14.8947 -17.6278 -11.7148 -60.9733 0.3091 -16.6915 -0.0000 -0.0000 -40.6003 -6.9312 -36.1839 -4.7825 -0.0000 -0.0000 -0.0000 -0.0000 0.0000 -0.0000 -21.6232 16.5808 8.3650 43.0865 0.0000 0.0000 -10.1186 -17.0787 -0.9719 3.6119 0.0000 0.0000 -6.7560 -26.4477 0.9057 30.4176 0.0000 0.0000 -1.2705 9.0497 -6.4745 -2.8129 0.0000 -0.0000
 -5.7192 10.1833 22.6005 1.7526 1.4765 142.6175 6.1391 2.3739 -0.9914 1.1615 1.6965 0.4249 -0.6947 2.9892 4.8350 0.0812 -0.9432 0.8675 9.0520 -10.0686 -4.5305 -4.8585 -1.6356 -14.3102 -3.7275 16.3438 3.9886 -51.5886 2.3447 26.6742 -0.0000 0.0001 59.8389 28.3281 7.5975 -7.1193 -0.0000 0.0000 -0.0000 -0.0000 -0.0000 0.0000 -18.9116 -24.9898 -16.6897 -69.9559 -2.5511 -11.0417 -0.0000 -0.0000 -42.6942 -5.8234 -53.9248 -6.2739 -0.0000 -0.0000 0.0000 0.0000 -0.0000 0.0000 -27.1944 18.8461 11.6013 53.7459 0.0000 0.0000 -13.7852 -21.3580 3.2076 3.2907 0.0000 0.0000 -5.6823 -28.4492 -4.6754 22.8909 0.0000 0.0000 0.3472 14.1959 -5.6163 -1.6372 0.0000 -0.0000
 -6.0488 10.5607 21.7449 2.9790 0.8288 139.0730 9.3465 2.0220 -1.1797 2.3910 1.3004 0.3466 -1.1481 2.6336 4.2607 -0.8194 -0.5813 0.9275 2.9655 -7.0379 -4.7096 -9.7281 -0.4143 -10.8967 -10.1183 22.8809 5.8129 -59.7158 -6.3286 13.9759 -0.0000 0.0001 65.4637 25.0992 16.5527 -7.1593 -0.0000 -0.0000 -0.0000 -0.0000 -0.0000 -0.0000 -22.1619 -29.4441 -18.8727 -68.6545 -2.1048 -0.7992 -0.0000 -0.0000 -53.6031 -11.1023 -71.5885 -16.0493 0.0000 0.0000 -0.0000 0.0000 0.0000 0.0000 -31.3491 19.1336 16.9045 60.4558 0.0000 0.0000 -16.1299 -22.8183 5.4478 2.2690 0.0000 0.0000 -5.3603 -29.8409 -7.6863 26.5851 0.0000 0.0000 -2.3523 22.5458 -8.9892 -3.2914 0.0000 -0.0000
